# AST/ASF file generated using VICON BodyLanguage
# -----------------------------------------------
:version 1.10
:name VICON
:units
  mass 1.0
  length 0.45
  angle deg
:documentation
   .ast/.asf automatically generated from VICON data using
   VICON BodyBuilder and BodyLanguage model FoxedUp or BRILLIANT.MOD
:root
   order TX TY TZ RX RY RZ
   axis XYZ
   position 0 0 0  
   orientation 0 0 0 
:bonedata
  begin
     id 1 
     name lhipjoint
     direction 0.621563 -0.714088 0.322083 
     length 2.21591 
     axis 0 0 0  XYZ
  end
  begin
     id 2 
     name lfemur
     direction 0.34202 -0.939693 0  
     length 6.84027  
     axis 0 0 20  XYZ
    dof rx ry rz
    limits (-160.0 20.0)
           (-70.0 70.0)
           (-60.0 70.0)
  end
  begin
     id 3 
     name ltibia
     direction 0.34202 -0.939693 0   
     length 6.74005   
     axis 0 0 20   XYZ
    dof rx
    limits (-10.0 170.0)
  end
  begin
     id 4 
     name lfoot
     direction 0.0348332 -0.0960526 0.994767   
     length 1.54672   
     axis -90 7.62852e-016 20   XYZ
    dof rx rz
    limits (-45.0 90.0)
           (-70.0 20.0)
  end
  begin
     id 5 
     name ltoes
     direction 1.53538e-011 -4.22089e-011 1   
     length 0.792077   
     axis -90 7.62852e-016 20   XYZ
    dof rx
    limits (-90.0 20.0)
  end
  begin
     id 6 
     name rhipjoint
     direction -0.648389 -0.693984 0.313015   
     length 2.2801  
     axis 0 0 0  XYZ 
  end
  begin
     id 7 
     name rfemur
     direction -0.34202 -0.939693 0   
     length 6.62341   
     axis 0 0 -20   XYZ
    dof rx ry rz
    limits (-160.0 20.0)
           (-70.0 70.0)
           (-70.0 60.0)
  end
  begin
     id 8 
     name rtibia
     direction -0.34202 -0.939693 0   
     length 6.63811   
     axis 0 0 -20   XYZ
    dof rx
    limits (-10.0 170.0)
 end
 begin
     id 9 
     name rfoot
     direction -0.0578404 -0.158915 0.985596   
     length 1.64992  
     axis -90 -7.62852e-016 -20   XYZ
    dof rx rz
    limits (-45.0 90.0)
           (-20.0 70.0)
  end
  begin
     id 10 
     name rtoes
     direction -1.53571e-011 -4.21911e-011 1   
     length 0.839909   
     axis -90 -7.62852e-016 -20   XYZ
    dof rx
    limits (-90.0 20.0)
  end
  begin
     id 11 
     name lowerback
     direction 0.000554472 0.999997 -0.00226605   
     length 1.81878   
     axis 0 0 0   XYZ
    dof rx ry rz
    limits (-20.0 45.0)
           (-30.0 30.0)
           (-30.0 30.0)
  end
  begin
     id 12 
     name upperback
     direction 0.00177008 0.999761 -0.021771   
     length 1.81977   
     axis 0 0 0   XYZ
    dof rx ry rz
    limits (-20.0 45.0)
           (-30.0 30.0)
           (-30.0 30.0)
  end
  begin
     id 13 
     name thorax
     direction 0.00134147 0.999799 -0.0200243   
     length 1.81422   
     axis 0 0 0   XYZ
    dof rx ry rz
    limits (-20.0 45.0)
           (-30.0 30.0)
           (-30.0 30.0)
  end
  begin
     id 14 
     name lowerneck
     direction -0.0819714 0.987506 0.134583   
     length 1.68295   
     axis 0 0 0   XYZ
    dof rx ry rz
    limits (-20.0 45.0)
           (-30.0 30.0)
           (-30.0 30.0)
  end
  begin
     id 15 
     name upperneck
     direction 0.0867129 0.969666 -0.228538   
     length 1.71188   
     axis 0 0 0   XYZ
    dof rx ry rz
    limits (-20.0 45.0)
           (-30.0 30.0)
           (-30.0 30.0)
  end
  begin
     id 16
     name head
     direction 0.023699 0.995021 -0.0968101  
     length 1.73365  
     axis 0 0 0   XYZ
    dof rx ry rz
    limits (-20.0 45.0)
           (-30.0 30.0)
           (-30.0 30.0)
  end
  begin
     id 17 
     name lclavicle
     direction 0.912847 0.398248 0.090054  
     length 3.56518  
     axis 0 0 0   XYZ
    dof ry rz
    limits (-20.0 10.0)
           (0.0 20.0)
  end
  begin
     id 18 
     name lhumerus
     direction 1 -4.48961e-011 -4.05442e-028   
     length 4.05444   
     axis 180 -30 -90   XYZ
    dof rx ry rz
    limits (-60.0 90.0)
           (-90.0 90.0)
           (-90.0 90.0)
  end
  begin
     id 19
     name lradius
     direction 1 -4.4897e-011 1.54979e-027   
     length 3.21205   
     axis 180 -30 -90   XYZ
    dof rx
    limits (-10.0 170.0)
  end
  begin
     id 20
     name lwrist
     direction 1 -4.48979e-011 1.55564e-027   
     length 1.60602   
     axis -1.61768e-015 90 90   XYZ
    dof ry
    limits (-180.0 0.0)
 end
  begin
     id 21 
     name lhand
     direction 1 -4.48877e-011 3.11128e-027   
     length 0.707407   
     axis -1.98526e-015 90 90   XYZ
    dof rx rz
    limits (-90.0 90.0)
           (-45.0 45.0)
  end
  begin
     id 22 
     name lfingers
     direction 1 -4.49016e-011 6.22255e-027   
     length 0.57033   
     axis -3.97052e-015 90 90   XYZ
    dof rx
    limits (0.0 90.0)
  end
  begin
     id 23
     name lthumb
     direction 0.707107 -6.35011e-011 0.707107   
     length 0.818883   
     axis -90 45 2.85299e-015   XYZ
    dof rx rz
    limits (-45.0 45.0)
           (-45.0 45.0)
  end
  begin
     id 24 
     name rclavicle
     direction -0.930415 0.353791 0.0957082   
     length 3.54688  
     axis 0 0 0   XYZ 
    dof ry rz
    limits (-10.0 20.0)
           (-20.0 0.0)
  end
  begin
     id 25 
     name rhumerus
     direction -1 -4.48952e-011 -8.4136e-018  
     length 3.74048   
     axis 180 30 90   XYZ
    dof rx ry rz
    limits (-90.0 60.0)
           (-90.0 90.0)
           (-90.0 90.0)
  end
  begin
     id 26 
     name rradius
     direction -1 -4.48964e-011 1.66692e-027   
     length 3.1603   
     axis 180 30 90   XYZ
    dof rx
    limits (-10.0 170.0)
  end
  begin
     id 27 
     name rwrist
     direction -1 -4.49008e-011 1.55564e-027   
     length 1.58015   
     axis -1.61768e-015 -90 -90   XYZ
    dof ry
    limits (-180.0 0.0)
  end
  begin
     id 28
     name rhand
     direction -1 -4.48922e-011 3.11128e-027   
     length 0.717028   
     axis -1.98526e-015 -90 -90   XYZ
    dof rx rz
    limits (-90.0 90.0)
           (-45.0 45.0)
  end
  begin
     id 29
     name rfingers
     direction -1 -4.49002e-011 6.22255e-027   
     length 0.578086   
     axis -3.97052e-015 -90 -90   XYZ
    dof rx
    limits (0.0 90.0)
  end
  begin
     id 30
     name rthumb
     direction -0.707107 -6.34899e-011 0.707107   
     length 0.83002   
     axis -90 -45 -2.85299e-015   XYZ
    dof rx rz
    limits (-45.0 45.0)
           (-45.0 45.0)
  end
:hierarchy
  begin
    root lhipjoint rhipjoint lowerback
    lhipjoint lfemur
    lfemur ltibia
    ltibia lfoot
    lfoot ltoes
    rhipjoint rfemur
    rfemur rtibia
    rtibia rfoot
    rfoot rtoes
    lowerback upperback
    upperback thorax
    thorax lowerneck lclavicle rclavicle
    lowerneck upperneck
    upperneck head
    lclavicle lhumerus
    lhumerus lradius
    lradius lwrist
    lwrist lhand lthumb
    lhand lfingers
    rclavicle rhumerus
    rhumerus rradius
    rradius rwrist
    rwrist rhand rthumb
    rhand rfingers
  end

#!OML:ASF G:\acrobat\cartwheel_test\acrobat_wednesday\Session 1\acrobatwednesday.ASF
:FULLY-SPECIFIED
:DEGREES
1
root 18.8993 16.4465 0.252748 88.8627 86.9512 80.4756
lowerback -8.40405 -0.70222 -2.29401
upperback -0.0969236 -0.667619 -0.570353
thorax 4.63539 -0.367995 0.616332
lowerneck -11.7841 -16.7732 -15.3771
upperneck 17.6335 -22.49 11.0769
head 10.594 -10.4666 2.87082
rclavicle -6.33626e-016 -1.00386e-014
rhumerus -36.6942 -25.2948 -71.562
rradius 19.7138
rwrist 54.7817
rhand -41.3104 11.3031
rfingers 7.12502
rthumb -14.2307 -18.1894
lclavicle -6.33626e-016 -1.00386e-014
lhumerus -27.1601 17.9346 74.6609
lradius 16.1852
lwrist 6.95116
lhand -21.6034 -15.0383
lfingers 7.12502
lthumb 4.7917 14.8875
rfemur 2.97304 16.7783 20.9758
rtibia -1.74675
rfoot -31.176 18.7308
rtoes 6.93775
lfemur 2.521 -31.6599 -25.4895
ltibia 1.64153
lfoot 1.92415 -15.523
ltoes 10.6894
2
root 18.8955 16.445 0.254519 88.6639 86.9124 80.2594
lowerback -8.48265 -0.700428 -2.35228
upperback -0.0372601 -0.656631 -0.56867
thorax 4.7423 -0.365472 0.65087
lowerneck -11.7759 -16.7649 -15.4092
upperneck 17.4843 -22.49 11.2151
head 10.5615 -10.4596 2.92364
rclavicle 2.37299e-015 -1.49089e-015
rhumerus -36.277 -24.8634 -71.943
rradius 20.1734
rwrist 51.9412
rhand -38.6635 12.6269
rfingers 7.12502
rthumb -11.6792 -17.0275
lclavicle 2.37299e-015 -1.49089e-015
lhumerus -26.9609 17.7892 74.815
lradius 16.1858
lwrist 7.20759
lhand -21.6684 -14.944
lfingers 7.12502
lthumb 4.729 14.9832
rfemur 2.96263 16.8936 20.9551
rtibia -1.75623
rfoot -31.2094 18.9011
rtoes 6.86677
lfemur 1.4445 -24.7839 -25.1181
ltibia 1.17015
lfoot 4.08568 -14.8648
ltoes -1.75194
3
root 18.8902 16.4447 0.255796 88.6831 86.9454 80.2894
lowerback -8.50334 -0.703879 -2.30768
upperback 0.0317937 -0.665438 -0.555774
thorax 4.8259 -0.370604 0.637305
lowerneck -11.9498 -16.7725 -15.3827
upperneck 17.4997 -22.4822 11.2043
head 10.5924 -10.4469 2.90446
rclavicle -1.14301e-015 -1.03368e-014
rhumerus -35.8085 -24.6172 -72.2505
rradius 20.5401
rwrist 49.2263
rhand -35.7967 13.6049
rfingers 7.12502
rthumb -8.91361 -16.1868
lclavicle -1.14301e-015 -1.03368e-014
lhumerus -26.828 17.7705 74.8987
lradius 16.2216
lwrist 7.28944
lhand -21.6852 -15.0862
lfingers 7.12502
lthumb 4.71277 14.8414
rfemur 2.96205 16.8516 20.9822
rtibia -1.79653
rfoot -31.2245 18.7877
rtoes 7.01525
lfemur 0.462341 -17.9249 -24.8486
ltibia 1.27233
lfoot 7.4173 -13.3895
ltoes -15.692
4
root 18.8842 16.4448 0.255572 88.4952 86.9948 80.1667
lowerback -8.46453 -0.690452 -2.20802
upperback 0.102056 -0.658496 -0.556812
thorax 4.87598 -0.366185 0.580923
lowerneck -12.1393 -16.7924 -15.3356
upperneck 17.6302 -22.4903 11.1259
head 10.6582 -10.4424 2.85374
rclavicle 5.31749e-015 7.85199e-015
rhumerus -35.1417 -23.8903 -72.9845
rradius 21.1802
rwrist 43.107
rhand -30.9801 14.8303
rfingers 7.12502
rthumb -4.26395 -15.1068
lclavicle 5.31749e-015 7.85199e-015
lhumerus -26.7151 17.8777 74.8989
lradius 16.2063
lwrist 7.16094
lhand -21.6013 -15.2696
lfingers 7.12502
lthumb 4.79372 14.6561
rfemur 3.04931 16.8366 21.0538
rtibia -1.87167
rfoot -31.3436 18.6054
rtoes 7.2921
lfemur -1.2372 -4.91909 -24.7498
ltibia 2.94993
lfoot 14.6547 -9.42104
ltoes -31.9045
5
root 18.8768 16.4447 0.256245 88.4342 87.0458 80.1901
lowerback -8.36954 -0.682015 -2.13054
upperback 0.151903 -0.65873 -0.540371
thorax 4.87377 -0.36542 0.55502
lowerneck -12.3003 -16.7499 -15.3165
upperneck 17.7749 -22.4367 11.1596
head 10.735 -10.401 2.85869
rclavicle -2.29845e-015 4.87022e-015
rhumerus -34.6004 -23.8712 -73.1499
rradius 22.6386
rwrist 38.5898
rhand -22.1877 12.5826
rfingers 7.12502
rthumb 4.22751 -17.3552
lclavicle -2.29845e-015 4.87022e-015
lhumerus -26.6181 18.006 74.9048
lradius 16.172
lwrist 7.04507
lhand -21.4907 -15.4204
lfingers 7.12502
lthumb 4.90052 14.5029
rfemur 3.23472 17.0924 21.203
rtibia -2.01997
rfoot -31.6872 18.5997
rtoes 7.39162
lfemur -1.2018 -4.90591 -24.6831
ltibia 2.98427
lfoot 14.72 -9.42987
ltoes -32.1474
6
root 18.8681 16.4444 0.257545 88.8275 87.0793 80.6006
lowerback -8.2888 -0.699946 -2.10232
upperback 0.156705 -0.690092 -0.500801
thorax 4.83423 -0.380704 0.577181
lowerneck -12.4446 -16.6205 -15.3514
upperneck 17.8869 -22.2888 11.3642
head 10.8145 -10.3043 2.94938
rclavicle 8.7838e-015 -7.7526e-015
rhumerus -34.4441 -23.7352 -73.197
rradius 22.6056
rwrist 38.4588
rhand -21.6833 10.0983
rfingers 7.12502
rthumb 4.71456 -19.8292
lclavicle 8.7838e-015 -7.7526e-015
lhumerus -26.5634 18.0141 74.9995
lradius 16.1837
lwrist 7.09722
lhand -21.4724 -15.5525
lfingers 7.12502
lthumb 4.91818 14.3704
rfemur 3.31103 17.3657 21.3148
rtibia -2.11434
rfoot -31.889 18.8568
rtoes 7.20124
lfemur -1.27498 -4.91227 -24.6227
ltibia 3.07165
lfoot 14.7235 -9.46006
ltoes -31.8793
7
root 18.8616 16.4447 0.257716 89.3055 87.0289 81.0693
lowerback -8.25737 -0.716401 -2.14675
upperback 0.139037 -0.70913 -0.49214
thorax 4.79929 -0.390846 0.609278
lowerneck -12.4515 -16.5376 -15.3987
upperneck 17.9354 -22.1947 11.4843
head 10.843 -10.2502 3.0142
rclavicle 7.05686e-015 1.42131e-014
rhumerus -34.3443 -23.6054 -73.2318
rradius 22.6265
rwrist 38.3245
rhand -21.4671 8.61573
rfingers 7.12502
rthumb 4.92337 -21.3071
lclavicle 7.05686e-015 1.42131e-014
lhumerus -26.5394 17.9387 75.1219
lradius 16.2357
lwrist 7.16629
lhand -21.4251 -15.677
lfingers 7.12502
lthumb 4.9639 14.2449
rfemur 3.23228 17.197 21.2199
rtibia -2.05153
rfoot -31.4992 19.1693
rtoes 6.94264
lfemur -1.35292 -4.88475 -24.6762
ltibia 3.13775
lfoot 14.6541 -9.4528
ltoes -31.7859
8
root 18.8556 16.4468 0.257285 90.1281 86.9193 81.894
lowerback -8.21394 -0.739555 -2.24896
upperback 0.139692 -0.730646 -0.503204
thorax 4.77737 -0.403579 0.653042
lowerneck -12.4485 -16.5333 -15.4166
upperneck 17.9404 -22.1822 11.4716
head 10.843 -10.247 3.01491
rclavicle -3.60297e-015 7.15625e-015
rhumerus -34.2373 -23.42 -73.3239
rradius 22.759
rwrist 38.0637
rhand -21.4949 8.32536
rfingers 7.12502
rthumb 4.89652 -21.5981
lclavicle -3.60297e-015 7.15625e-015
lhumerus -26.4977 17.8176 75.2637
lradius 16.381
lwrist 7.34087
lhand -21.2124 -15.6697
lfingers 7.12502
lthumb 5.16929 14.2472
rfemur 3.16797 16.9343 21.0298
rtibia -1.99911
rfoot -31.146 19.242
rtoes 7.02535
lfemur -1.40863 -4.92019 -24.8142
ltibia 3.22636
lfoot 14.6725 -9.38207
ltoes -31.877
9
root 18.8473 16.4492 0.257379 90.8885 86.8512 82.6578
lowerback -8.14794 -0.769431 -2.30769
upperback 0.153862 -0.766497 -0.5075
thorax 4.75682 -0.42268 0.677814
lowerneck -12.5008 -16.5397 -15.4345
upperneck 17.9599 -22.1857 11.4833
head 10.864 -10.2453 3.01587
rclavicle -1.10698e-014 -6.36111e-015
rhumerus -34.0891 -23.2215 -73.4571
rradius 22.9179
rwrist 37.8597
rhand -21.1626 8.15558
rfingers 7.12502
rthumb 5.21739 -21.7602
lclavicle -1.10698e-014 -6.36111e-015
lhumerus -26.4325 17.4557 75.48
lradius 16.6089
lwrist 7.82049
lhand -21.144 -15.321
lfingers 7.12502
lthumb 5.23527 14.5944
rfemur 3.11533 16.8776 20.9166
rtibia -1.96568
rfoot -31.2428 19.0344
rtoes 7.51056
lfemur -1.48353 -5.0356 -24.8933
ltibia 3.36475
lfoot 14.8181 -9.3433
ltoes -31.9213
10
root 18.8393 16.45 0.258583 90.5379 86.8299 82.321
lowerback -8.10242 -0.77012 -2.30557
upperback 0.184029 -0.768249 -0.519782
thorax 4.76252 -0.423785 0.663923
lowerneck -12.5718 -16.5568 -15.4619
upperneck 18.0201 -22.2159 11.5388
head 10.9144 -10.2494 3.02482
rclavicle 8.00108e-015 8.64713e-015
rhumerus -33.9586 -23.1309 -73.5871
rradius 23.0549
rwrist 37.8227
rhand -20.8302 8.24857
rfingers 7.12502
rthumb 5.53825 -21.6591
lclavicle 8.00108e-015 8.64713e-015
lhumerus -26.3392 17.0229 75.6799
lradius 16.7932
lwrist 8.30117
lhand -21.1877 -14.9947
lfingers 7.12502
lthumb 5.19307 14.9217
rfemur 3.06623 17.0103 20.8874
rtibia -1.92949
rfoot -31.5688 18.7467
rtoes 7.99491
lfemur -1.53057 -5.0396 -24.8961
ltibia 3.44968
lfoot 14.8944 -9.32452
ltoes -31.9712
11
root 18.8333 16.4494 0.259887 89.6286 86.8077 81.3866
lowerback -8.12003 -0.767943 -2.31498
upperback 0.201039 -0.764141 -0.513152
thorax 4.79031 -0.422505 0.676231
lowerneck -12.6135 -16.5791 -15.5141
upperneck 18.0437 -22.2448 11.5809
head 10.9472 -10.2584 3.03539
rclavicle 4.58447e-015 3.97569e-015
rhumerus -33.8441 -23.0174 -73.7157
rradius 23.1932
rwrist 37.7341
rhand -20.7682 8.09773
rfingers 7.12502
rthumb 5.59819 -21.8083
lclavicle 4.58447e-015 3.97569e-015
lhumerus -26.2827 16.7393 75.8348
lradius 16.935
lwrist 8.65394
lhand -21.0699 -15.0052
lfingers 7.12502
lthumb 5.30684 14.9083
rfemur 3.02348 17.2278 20.8746
rtibia -1.9475
rfoot -31.841 18.6838
rtoes 7.82182
lfemur -1.59592 -4.95111 -24.8924
ltibia 3.47789
lfoot 14.8469 -9.27628
ltoes -32.0957
12
root 18.828 16.4488 0.260327 89.3133 86.8064 81.017
lowerback -8.15572 -0.794145 -2.29895
upperback 0.168167 -0.801411 -0.481435
thorax 4.77741 -0.440486 0.695474
lowerneck -12.5971 -16.5831 -15.5599
upperneck 18.0907 -22.2298 11.5077
head 10.9548 -10.2615 3.02002
rclavicle 3.01904e-015 -8.54774e-015
rhumerus -33.7972 -22.8 -73.8281
rradius 23.3297
rwrist 37.4674
rhand -20.8374 7.69461
rfingers 7.12502
rthumb 5.53132 -22.2132
lclavicle 3.01904e-015 -8.54774e-015
lhumerus -26.3451 16.5836 75.9348
lradius 17.0572
lwrist 8.91276
lhand -20.956 -15.1728
lfingers 7.12502
lthumb 5.41686 14.738
rfemur 3.04998 17.4611 20.9122
rtibia -2.08897
rfoot -32.0256 18.8719
rtoes 7.2033
lfemur -1.70693 -4.87839 -24.8722
ltibia 3.52096
lfoot 14.7527 -9.21368
ltoes -32.2707
13
root 18.8233 16.4484 0.260021 89.5659 86.7841 81.2606
lowerback -8.18298 -0.81703 -2.28045
upperback 0.17196 -0.83284 -0.480792
thorax 4.79739 -0.455782 0.681516
lowerneck -12.6116 -16.5893 -15.6437
upperneck 18.1941 -22.2336 11.5183
head 11.008 -10.2632 3.03012
rclavicle 1.55301e-015 -1.78906e-015
rhumerus -33.7257 -22.6543 -73.9425
rradius 23.4128
rwrist 37.1937
rhand -20.9368 7.58858
rfingers 7.12502
rthumb 5.43533 -22.3217
lclavicle 1.55301e-015 -1.78906e-015
lhumerus -26.2953 16.5845 75.9769
lradius 17.063
lwrist 8.97024
lhand -21.0141 -15.3311
lfingers 7.12502
lthumb 5.36076 14.5811
rfemur 3.19338 17.6674 20.9471
rtibia -2.32359
rfoot -32.1724 19.1105
rtoes 6.74311
lfemur -1.76539 -4.82707 -24.8918
ltibia 3.56637
lfoot 14.672 -9.14235
ltoes -32.4436
